<?xml version="1.0" encoding="utf-8"?>
<!-- Generator: Adobe Illustrator 24.1.3, SVG Export Plug-In . SVG Version: 6.00 Build 0)  -->
<svg version="1.1" id="Layer_1" xmlns="http://www.w3.org/2000/svg" xmlns:xlink="http://www.w3.org/1999/xlink" x="0px" y="0px"
	 viewBox="0 0 41.2 36.6" style="enable-background:new 0 0 41.2 36.6;" xml:space="preserve">
<style type="text/css">
	.st0{fill:#51AF33;}
	.st1{fill:#FFFFFF;}
</style>
<g id="Layer_2_1_">
	<g id="Identity">
		<path class="st0" d="M39.4,16.7c-2-3.3-3.5-3.7-4.7-4.1c-1.1-0.3-2-0.6-3.8-3.6C29.6,6.9,28,5,26.1,3.4C23.7,1.4,22,1,21,1
			c-0.7,0-1.3,0.2-1.8,0.5l-0.8,0.6C18.1,2.1,17.9,2,17.6,2c-0.4,0-0.8,0.1-1.1,0.4c-0.4,0.3-0.6,0.9-0.5,1.4
			c0.2,0.9,0.6,1.7,1.3,2.3c0.3,0.3,0.6,0.7,1,1.1C13,6.2,7.7,8.2,4.5,12.3H4.1c-1.1,0-2.1,0.5-2.7,1.5c-0.5,0.8-0.6,1.7-0.3,2.5
			c0.1,0.5,0.4,0.9,0.7,1.2c-2.1,7.6,2.5,15.5,10.1,17.6c6.4,1.7,13.1-1.2,16.3-7c0.2,0,0.5,0,0.7,0c0.6,0,1.2-0.1,1.8-0.4
			c0.6-0.3,1-0.9,1.1-1.6c0.1-0.7-0.3-1.4-0.9-1.7c-0.4-0.2-0.8-0.4-1.2-0.6c0.1-0.3,0.1-0.7,0.1-1c1,0.3,2,0.5,3.1,0.5
			c0.5,0,0.9,0,1.6-0.1c3.4-0.2,4.8-1.5,5.3-2.5C40.3,20.1,40.6,18.7,39.4,16.7z"/>
		<path class="st1" d="M38.5,17.3c-3.5-5.9-4.8-1.6-8.5-7.7c-3-4.9-7.6-8.4-9.9-7.4C20,2.3,20,2.4,20,2.4c0,0,0,0.1,0.1,0.1
			c2.2,0.9,7,4.9,9.1,8.9c0,0,0,0.1,0,0.1c0,0-0.1,0-0.1,0c-2.6-3.2-10.5-9.4-11.8-8.3c-1.1,0.9,4.8,6.5,9.7,9
			c0.1,0.1,0.2,0.2,0.1,0.3c0,0,0,0,0,0c-0.2,0.4-0.8,1-2.2,0.9c-2.6,0-5-3.8-10.5-3.8c-3.4,0-6.7,1.4-8.9,4c0,0-0.1,0-0.1,0
			c-1-0.5-2.2-0.2-2.8,0.7c-0.6,1-0.3,2.2,0.6,2.8c0.1,0.1,0.1,0.2,0.1,0.2c-0.4,1.3-0.6,2.6-0.6,3.9c0,6.3,5.2,11.4,11.5,11.5
			c2.2,0,4.3-0.6,6.2-1.8c1.8-1.1,3.1-2.5,2.7-3.5c-0.5-1.5-2.6-1-4.8-0.1c-0.1,0-0.2,0-0.2-0.1c0,0,0-0.1,0-0.1
			c2.5-2.6,2.5-6.9-0.2-9.4c-1.2-1.2-2.9-1.9-4.6-1.9c-2.7-0.2-5.2,1.5-6.2,4c0,0.1-0.1,0.1-0.2,0.1c-0.1,0-0.1-0.1-0.1-0.2l0,0
			c0.7-3.2,3.4-5.5,6.7-5.6c4-0.2,7.4,2.8,7.7,6.8c0.1,1.5-0.3,3-1.1,4.2c-0.1,0.1,0,0.2,0.1,0.3c0.1,0,0.2,0,0.2,0
			c0.8-0.4,1.5-1,2.1-1.7c0,0,0.1,0,0.1,0c0,0,0,0,0,0c3.6,3.9,8.2,4,8.3,2.5c0.1-1.7-4.3-0.6-4.6-4.9c0-0.1,0-0.1,0.1-0.1
			c0,0,0,0,0.1,0c0.4,0.3,1,0.3,1.3-0.1c0.1-0.1,0.2-0.3,0.2-0.5c0-0.1,0.1-0.1,0.1-0.1c0,0,0,0,0,0c1.9,1.9,3.9,2,6.5,1.8
			C38.3,22.1,40.1,20,38.5,17.3z M35.1,17.3c-0.5,0-1-0.4-1.1-0.9c-0.1-0.4,0.2-0.8,0.6-0.9c0.1,0,0.1,0,0.2,0c0.5,0,1,0.4,1.1,0.9
			c0.1,0.4-0.2,0.8-0.6,0.9C35.2,17.4,35.2,17.4,35.1,17.3L35.1,17.3z"/>
	</g>
</g>
</svg>
